<svg version="1.1" xmlns="http://www.w3.org/2000/svg" xmlns:xlink="http://www.w3.org/1999/xlink" x="0px" y="0px"
	 viewBox="0 0 20 20" style="enable-background:new 0 0 20 20;" xml:space="preserve">
<path d="M6.4,8.4H2c-1.1,0-2-0.9-2-2V2c0-1.1,0.9-2,2-2h4.4c1.1,0,2,0.9,2,2v4.4C8.4,7.5,7.5,8.4,6.4,8.4z M6.4,20H2
	c-1.1,0-2-0.9-2-2v-4.4c0-1.1,0.9-2,2-2h4.4c1.1,0,2,0.9,2,2V18C8.4,19.1,7.5,20,6.4,20z M18,20h-4.4c-1.1,0-2-0.9-2-2v-4.4
	c0-1.1,0.9-2,2-2H18c1.1,0,2,0.9,2,2V18C20,19.1,19.1,20,18,20z M18,8.4h-4.4c-1.1,0-2-0.9-2-2V2c0-1.1,0.9-2,2-2H18
	c1.1,0,2,0.9,2,2v4.4C20,7.5,19.1,8.4,18,8.4z"/>
</svg>
