<svg version="1.1" id="Livello_1" xmlns="http://www.w3.org/2000/svg" xmlns:xlink="http://www.w3.org/1999/xlink" x="0px" y="0px"
	 viewBox="0 0 20 23" style="enable-background:new 0 0 20 23;" xml:space="preserve">
<path d="M10,0c2.4,0,4.4,1.7,4.9,4l0,0H19c0.6,0,1,0.4,1,1s-0.4,1-1,1l0,0h-1v13.3c0,2-1.7,3.7-3.7,3.7l0,0H5.7
	c-2,0-3.7-1.7-3.7-3.7l0,0V6H1C0.4,6,0,5.6,0,5s0.4-1,1-1l0,0h4.1C5.6,1.7,7.6,0,10,0z M16,6H4v13.3C4,20.2,4.8,21,5.7,21l0,0h8.6
	c0.9,0,1.7-0.8,1.7-1.7l0,0V6z M8,9c0.6,0,1,0.4,1,1l0,0v7c0,0.6-0.4,1-1,1s-1-0.4-1-1l0,0v-7C7,9.5,7.4,9,8,9z M12,9
	c0.6,0,1,0.4,1,1l0,0v7c0,0.6-0.4,1-1,1s-1-0.4-1-1l0,0v-7C11,9.5,11.4,9,12,9z M10,2C8.7,2,7.6,2.8,7.2,4l0,0h5.6
	C12.4,2.8,11.3,2,10,2z"/>
</svg>
