<svg version="1.1"
  xmlns="http://www.w3.org/2000/svg" style="display:none;">
  <symbol id="calendar">
    <path d="M18,0c1.1,0,2,0.9,2,2v16c0,1.1-0.9,2-2,2H2c-1.1,0-2-0.9-2-2V2c0-1.1,0.9-2,2-2H18z M4.9,13.4
	c-0.7,0-1.3,0.6-1.3,1.3c0,0.7,0.6,1.3,1.3,1.3s1.3-0.6,1.3-1.3C6.2,14,5.6,13.4,4.9,13.4z M10,13.4c-0.7,0-1.3,0.6-1.3,1.3
	c0,0.7,0.6,1.3,1.3,1.3s1.3-0.6,1.3-1.3C11.3,14,10.7,13.4,10,13.4z M15.1,13.4c-0.7,0-1.3,0.6-1.3,1.3c0,0.7,0.6,1.3,1.3,1.3
	c0.7,0,1.3-0.6,1.3-1.3C16.5,14,15.9,13.4,15.1,13.4z M4.9,8.2c-0.7,0-1.3,0.6-1.3,1.3c0,0.7,0.6,1.3,1.3,1.3s1.3-0.6,1.3-1.3
	C6.2,8.8,5.6,8.2,4.9,8.2z M10,8.2c-0.7,0-1.3,0.6-1.3,1.3c0,0.7,0.6,1.3,1.3,1.3s1.3-0.6,1.3-1.3C11.3,8.8,10.7,8.2,10,8.2z
	 M15.1,8.2c-0.7,0-1.3,0.6-1.3,1.3c0,0.7,0.6,1.3,1.3,1.3c0.7,0,1.3-0.6,1.3-1.3C16.5,8.8,15.9,8.2,15.1,8.2z"/>
  </symbol>
  <symbol id="charts">
    <path d="M10,10h10c0,5.5-4.5,10-10,10S0,15.5,0,10S4.5,0,10,0V10z"/>
  </symbol>
  <symbol id="dashboard">
    <path d="M6.4,8.4H2c-1.1,0-2-0.9-2-2V2c0-1.1,0.9-2,2-2h4.4c1.1,0,2,0.9,2,2v4.4C8.4,7.5,7.5,8.4,6.4,8.4z M6.4,20H2
	c-1.1,0-2-0.9-2-2v-4.4c0-1.1,0.9-2,2-2h4.4c1.1,0,2,0.9,2,2V18C8.4,19.1,7.5,20,6.4,20z M18,20h-4.4c-1.1,0-2-0.9-2-2v-4.4
	c0-1.1,0.9-2,2-2H18c1.1,0,2,0.9,2,2V18C20,19.1,19.1,20,18,20z M18,8.4h-4.4c-1.1,0-2-0.9-2-2V2c0-1.1,0.9-2,2-2H18
	c1.1,0,2,0.9,2,2v4.4C20,7.5,19.1,8.4,18,8.4z"/>
  </symbol>
  <symbol id="settings">
    <path d="M13.3,9.9c0-1.8-1.5-3.3-3.3-3.3c-1.8,0-3.3,1.5-3.3,3.3c0,1.8,1.5,3.4,3.3,3.4C11.8,13.3,13.4,11.7,13.3,9.9
	 M8.7,0h2.4c0.3,0.2,0.5,0.5,0.5,0.8c0.1,0.4,0.2,0.7,0.3,1.1c0,0.3,0.2,0.4,0.4,0.5C12.9,2.6,13.4,2.8,14,3c0.5-0.3,1-0.5,1.5-0.8
	c0.4-0.2,0.7-0.2,1,0.1c0.4,0.4,0.8,0.8,1.2,1.2c0.3,0.3,0.3,0.6,0.1,1c-0.1,0.1-0.1,0.3-0.2,0.4c-0.2,0.4-0.4,0.7-0.6,1.1
	c0.2,0.5,0.4,1.1,0.6,1.6c0.1,0.2,0.2,0.4,0.5,0.4c0.4,0.1,0.7,0.2,1,0.3C19.7,8.4,20,8.7,20,9.4c0,0.4,0,0.8,0,1.3
	c0,0.6-0.2,0.9-0.8,1c-0.5,0.2-1,0.3-1.4,0.4c-0.3,0.6-0.5,1.3-0.8,1.9c0.1,0.1,0.1,0.3,0.2,0.4c0.2,0.3,0.4,0.6,0.5,0.9
	c0.2,0.4,0.3,0.7,0,1.1c-0.4,0.4-0.8,0.9-1.2,1.3c-0.3,0.2-0.6,0.3-0.9,0.1c-0.3-0.2-0.6-0.3-0.9-0.5c-0.2-0.1-0.4-0.3-0.6-0.3
	c-0.5,0.2-1,0.4-1.5,0.6c-0.3,0.1-0.4,0.2-0.5,0.5c-0.1,0.4-0.2,0.8-0.3,1.2c-0.2,0.5-0.4,0.7-0.9,0.7c-0.5,0-0.9,0-1.4,0
	c-0.5,0-0.8-0.2-1-0.7c-0.1-0.4-0.2-0.8-0.3-1.2c-0.1-0.3-0.2-0.4-0.4-0.5C7,17.4,6.5,17.2,6,17c-0.5,0.3-0.9,0.5-1.4,0.8
	c-0.5,0.2-0.7,0.2-1.1-0.2c-0.4-0.4-0.7-0.7-1.1-1.1c-0.3-0.3-0.3-0.6-0.2-1c0.1-0.2,0.2-0.3,0.3-0.5c0.1-0.3,0.3-0.6,0.5-0.8
	c0.1-0.1,0.1-0.3,0-0.4c-0.2-0.6-0.5-1.1-0.7-1.7c-0.5-0.1-1-0.3-1.4-0.4C0.4,11.6,0.2,11.4,0,11V9c0.2-0.4,0.5-0.7,0.9-0.8
	C1.3,8.2,1.6,8,2,8c0.2,0,0.3-0.1,0.4-0.3c0.2-0.5,0.4-0.9,0.6-1.4C3,6,3,5.8,2.9,5.6C2.6,5.3,2.5,4.9,2.3,4.5
	C2,4.1,2.1,3.7,2.4,3.4c0.3-0.3,0.6-0.7,1-1C3.9,2,4.2,2,4.7,2.3C5.1,2.5,5.6,2.8,6,3c0.3-0.1,0.6-0.3,0.9-0.4
	c0.3-0.1,0.6-0.3,1-0.4C8,1.9,8,1.6,8.1,1.3C8.3,0.8,8.4,0.3,8.7,0"/>
  </symbol>
  <symbol id="teams">
    <path d="M10,0c2.4,0,4.4,2,4.4,4.4s-2,4.4-4.4,4.4s-4.4-2-4.4-4.4S7.6,0,10,0z M4.4,11.2
	c2.4,0,4.4,2,4.4,4.4S6.8,20,4.4,20S0,18,0,15.6S2,11.2,4.4,11.2z M15.6,11.2c2.4,0,4.4,2,4.4,4.4S18,20,15.6,20s-4.4-2-4.4-4.4
	S13.2,11.2,15.6,11.2z"/>
  </symbol>
  <symbol id="trash">
    <path d="M10,0c2.4,0,4.4,1.7,4.9,4l0,0H19c0.6,0,1,0.4,1,1s-0.4,1-1,1l0,0h-1v13.3c0,2-1.7,3.7-3.7,3.7l0,0H5.7
	c-2,0-3.7-1.7-3.7-3.7l0,0V6H1C0.4,6,0,5.6,0,5s0.4-1,1-1l0,0h4.1C5.6,1.7,7.6,0,10,0z M16,6H4v13.3C4,20.2,4.8,21,5.7,21l0,0h8.6
	c0.9,0,1.7-0.8,1.7-1.7l0,0V6z M8,9c0.6,0,1,0.4,1,1l0,0v7c0,0.6-0.4,1-1,1s-1-0.4-1-1l0,0v-7C7,9.5,7.4,9,8,9z M12,9
	c0.6,0,1,0.4,1,1l0,0v7c0,0.6-0.4,1-1,1s-1-0.4-1-1l0,0v-7C11,9.5,11.4,9,12,9z M10,2C8.7,2,7.6,2.8,7.2,4l0,0h5.6
	C12.4,2.8,11.3,2,10,2z"/>
  </symbol>
  <symbol id="close">
		<polygon points="17,17.3 10.3,10.6 3.6,17.3 2.9,16.6 9.6,9.9 2.9,3.2 3.6,2.5 10.3,9.2 17,2.5 17.7,3.2 11,9.9 17.7,16.6 "/>
  </symbol>
</svg>
